<svg width="24" height="24" xmlns="http://www.w3.org/2000/svg">
 <g>
  <title>Layer 1</title>
  <g stroke="null">
   <g stroke="null">
    <path stroke="null" d="m29.98437,40.92849c0.18498,-0.92405 -0.41494,-1.82311 -1.33817,-2.00809c-0.92156,-0.18582 -1.82477,0.41329 -2.00807,1.33817l-3.44609,15.69308l3.4802,0l3.31213,-15.02316z"/>
    <path stroke="null" d="m36.81053,40.25857c-0.18331,-0.92239 -1.07486,-1.52648 -2.00807,-1.33817c-0.92323,0.18498 -1.52315,1.08404 -1.33817,2.00809l3.31213,15.02316l3.4802,0l-3.44609,-15.69308z"/>
    <path stroke="null" d="m24.75993,34.44011c0.37162,-0.86656 -0.03,-1.86977 -0.89656,-2.24056c-0.8599,-0.36994 -1.86978,0.02834 -2.23973,0.89574l-8.97012,22.85637l3.71267,0l8.39373,-21.51154z"/>
    <path stroke="null" d="m41.82501,33.09445c-0.36994,-0.86739 -1.37982,-1.26568 -2.23973,-0.89572c-0.86656,0.37078 -1.26817,1.37399 -0.89656,2.24055l8.39373,21.51238l3.71267,0l-8.97012,-22.8572z"/>
    <path stroke="null" d="m50.49537,8.17083l-37.54208,0c-2.82299,0 -5.11937,2.29638 -5.11937,5.11937l0,40.95499c0,0.94239 0.76325,1.70646 1.70646,1.70646l0.67378,0l4.4456,-10.37259l0,-20.34366l8.53229,-8.53229l17.06458,0l8.53229,8.53229l0,20.34366l4.4456,10.37259l0.67378,0c0.94321,0 1.70646,-0.76407 1.70646,-1.70646l0,-40.95499c0,-2.82299 -2.29638,-5.11937 -5.11937,-5.11937z"/>
   </g>
   <text stroke="null" transform="matrix(1.70646 0 0 1.70646 -2.90731 -48.6094)" font-family="'Helvetica Neue', Helvetica, Arial-Unicode, Arial, Sans-serif" font-weight="bold" font-size="5px" fill="#000000" y="78.27375" x="4.29446">Created by M. Oki Orlando</text>
   <text stroke="null" transform="matrix(1.70646 0 0 1.70646 -2.90731 -48.6094)" font-family="'Helvetica Neue', Helvetica, Arial-Unicode, Arial, Sans-serif" font-weight="bold" font-size="5px" fill="#000000" y="83.27375" x="4.29446">from the Noun Project</text>
  </g>
 </g>
</svg>